HIERARCHY
ROOT Hips
{
	OFFSET 0.00000 0.00000 0.00000
	CHANNELS 6 Xposition Yposition Zposition Zrotation Yrotation Xrotation 
	JOINT LHipJoint
	{
		OFFSET 0 0 0
		CHANNELS 3 Zrotation Yrotation Xrotation
		JOINT LeftUpLeg
		{
			OFFSET 1.58895 -1.83665 0.71753
			CHANNELS 3 Zrotation Yrotation Xrotation
			JOINT LeftLeg
			{
				OFFSET 2.50528 -6.88321 0.00000
				CHANNELS 3 Zrotation Yrotation Xrotation
				JOINT LeftFoot
				{
					OFFSET 2.63244 -7.23257 0.00000
					CHANNELS 3 Zrotation Yrotation Xrotation
					JOINT LeftToeBase
					{
						OFFSET 0.23691 -0.65090 1.72750
						CHANNELS 3 Zrotation Yrotation Xrotation
						End Site
						{
							OFFSET 0.00000 -0.00000 0.92561
						}
					}
				}
			}
		}
	}
	JOINT RHipJoint
	{
		OFFSET 0 0 0
		CHANNELS 3 Zrotation Yrotation Xrotation
		JOINT RightUpLeg
		{
			OFFSET -1.51435 -1.83665 0.71753
			CHANNELS 3 Zrotation Yrotation Xrotation
			JOINT RightLeg
			{
				OFFSET -2.54551 -6.99375 0.00000
				CHANNELS 3 Zrotation Yrotation Xrotation
				JOINT RightFoot
				{
					OFFSET -2.66027 -7.30903 0.00000
					CHANNELS 3 Zrotation Yrotation Xrotation
					JOINT RightToeBase
					{
						OFFSET -0.22981 -0.63138 2.03959
						CHANNELS 3 Zrotation Yrotation Xrotation
						End Site
						{
							OFFSET -0.00000 -0.00000 1.07060
						}
					}
				}
			}
		}
	}
	JOINT LowerBack
	{
		OFFSET 0 0 0
		CHANNELS 3 Zrotation Yrotation Xrotation
		JOINT Spine
		{
			OFFSET -0.02651 1.86275 -0.11152
			CHANNELS 3 Zrotation Yrotation Xrotation
			JOINT Spine1
			{
				OFFSET 0.01019 1.86224 0.04087
				CHANNELS 3 Zrotation Yrotation Xrotation
				JOINT Neck
				{
					OFFSET 0 0 0
					CHANNELS 3 Zrotation Yrotation Xrotation
					JOINT Neck1
					{
						OFFSET -0.01926 1.80512 0.08867
						CHANNELS 3 Zrotation Yrotation Xrotation
						JOINT Head
						{
							OFFSET 0.05516 1.76451 -0.38475
							CHANNELS 3 Zrotation Yrotation Xrotation
							End Site
							{
								OFFSET 0.01592 1.82587 -0.14001
							}
						}
					}
				}
				JOINT LeftShoulder
				{
					OFFSET 0 0 0
					CHANNELS 3 Zrotation Yrotation Xrotation
					JOINT LeftArm
					{
						OFFSET 3.47116 1.51376 0.14491
						CHANNELS 3 Zrotation Yrotation Xrotation
						JOINT LeftForeArm
						{
							OFFSET 4.78095 -0.00000 0.00000
							CHANNELS 3 Zrotation Yrotation Xrotation
							JOINT LeftHand
							{
								OFFSET 3.58615 -0.00000 -0.00000
								CHANNELS 3 Zrotation Yrotation Xrotation
								JOINT LeftFingerBase
								{
									OFFSET 0 0 0
									CHANNELS 3 Zrotation Yrotation Xrotation
									JOINT LeftHandIndex1
									{
										OFFSET 0.65981 -0.00000 0.00000
										CHANNELS 3 Zrotation Yrotation Xrotation
										End Site
										{
											OFFSET 0.53196 -0.00000 0.00000
										}
									}
								}
								JOINT LThumb
								{
									OFFSET 0 0 0
									CHANNELS 3 Zrotation Yrotation Xrotation
									End Site
									{
										OFFSET 0.54008 -0.00000 0.54008
									}
								}
							}
						}
					}
				}
				JOINT RightShoulder
				{
					OFFSET 0 0 0
					CHANNELS 3 Zrotation Yrotation Xrotation
					JOINT RightArm
					{
						OFFSET -3.31725 1.61216 0.35156
						CHANNELS 3 Zrotation Yrotation Xrotation
						JOINT RightForeArm
						{
							OFFSET -4.48913 -0.00000 0.00000
							CHANNELS 3 Zrotation Yrotation Xrotation
							JOINT RightHand
							{
								OFFSET -3.70510 -0.00000 0.00000
								CHANNELS 3 Zrotation Yrotation Xrotation
								JOINT RightFingerBase
								{
									OFFSET 0 0 0
									CHANNELS 3 Zrotation Yrotation Xrotation
									JOINT RightHandIndex1
									{
										OFFSET -0.44914 -0.00000 0.00000
										CHANNELS 3 Zrotation Yrotation Xrotation
										End Site
										{
											OFFSET -0.36211 -0.00000 0.00000
										}
									}
								}
								JOINT RThumb
								{
									OFFSET 0 0 0
									CHANNELS 3 Zrotation Yrotation Xrotation
									End Site
									{
										OFFSET -0.36763 -0.00000 0.36763
									}
								}
							}
						}
					}
				}
			}
		}
	}
}
MOTION
Frames: 10
Frame Time: .0083333
-0.2974 18.5855 4.6573 0.0048 -5.1407 20.1171 0.0000 0.0000 0.0000 -12.6296 -5.9047 -37.3007 3.4886 11.4469 33.8022 1.0081 -0.2120 -18.9146 8.5786 -16.5288 -54.6211 0.0000 0.0000 0.0000 8.0470 11.9308 -28.5835 -1.5921 -7.9591 22.5899 -1.0161 -1.2459 -19.5335 -0.4750 4.4201 -12.2617 1.7477 -2.8932 32.5199 1.7553 -2.8506 5.0147 2.0266 -1.3495 -11.1775 -5.4983 -1.5777 -5.4246 4.5148 -1.8178 -1.2944 2.3378 -0.8512 0.6250 0.0000 -0.0000 0.0000 -83.2734 -23.5512 66.1755 155.5058 -35.6825 -112.0070 -0.0000 -0.0000 9.2130 32.8563 -47.4802 -25.4552 -7.1250 0.0000 -0.0000 -3.7296 -22.3229 4.8743 0.0000 -0.0000 0.0000 69.0696 30.2312 41.1931 -160.7683 29.7055 -114.8549 0.0000 0.0000 2.3510 2.6947 -29.2289 -1.3165 7.1250 -0.0000 -0.0000 35.5846 -55.4242 -10.0258
-0.2969 18.5855 4.6554 -0.0150 -5.0342 20.0536 0.0000 0.0000 0.0000 -12.5953 -5.9249 -37.2492 3.4904 11.4495 33.8112 1.0047 -0.2680 -18.8635 8.5937 -16.5390 -54.6741 0.0000 0.0000 0.0000 8.0703 12.0911 -28.4227 -1.5928 -7.9608 22.5951 -1.0406 -1.3846 -19.8198 -0.4714 4.4036 -12.2149 1.7484 -2.9367 32.5327 1.8120 -2.8977 5.0559 2.1035 -1.3708 -11.1330 -5.7507 -1.6501 -5.5408 4.8225 -1.8964 -1.2889 2.4847 -0.8856 0.6597 -0.0000 0.0000 0.0000 -83.3417 -23.4386 66.4183 155.5286 -35.6588 -112.0203 -0.0000 -0.0000 9.2439 33.1555 -46.4762 -25.3461 -7.1250 0.0000 -0.0000 -3.2565 -21.4626 4.2273 -0.0000 0.0000 0.0000 69.9923 30.4899 41.0864 -160.7909 29.6777 -114.8660 0.0000 0.0000 3.0784 7.9472 -28.9143 -3.8614 7.1250 -0.0000 -0.0000 40.0965 -54.1617 -10.2890
-0.2957 18.5869 4.6559 -0.0282 -4.9335 20.0141 0.0000 0.0000 0.0000 -12.5749 -5.9418 -37.2227 3.4937 11.4544 33.8280 1.0003 -0.3010 -18.8110 8.6116 -16.5512 -54.7369 0.0000 0.0000 0.0000 8.0836 12.2803 -28.1879 -1.5740 -7.9158 22.4587 -1.0642 -1.6212 -20.1368 -0.5113 4.5832 -12.7235 1.7983 -2.9280 32.5542 1.8278 -2.8662 5.0405 2.0831 -1.3576 -11.1606 -5.6981 -1.7602 -5.5578 4.8886 -2.0462 -1.3220 2.4930 -0.9601 0.6610 -0.0000 0.0000 0.0000 -83.4776 -23.2030 66.7209 155.4254 -35.7660 -111.9601 -0.0000 -0.0000 9.1407 32.7371 -46.6361 -25.0512 -7.1250 0.0000 -0.0000 -3.4974 -21.4760 4.5414 -0.0000 0.0000 0.0000 69.7774 30.2174 40.4440 -160.9746 29.4502 -114.9567 0.0000 0.0000 3.2734 9.5629 -28.3764 -4.5778 7.1250 -0.0000 -0.0000 41.0806 -53.4392 -9.8262
-0.2940 18.5866 4.6572 0.0075 -4.7812 20.0124 0.0000 0.0000 0.0000 -12.5833 -6.0336 -37.2330 3.4976 11.4600 33.8475 0.9998 -0.3427 -18.7926 8.6187 -16.5560 -54.7619 0.0000 0.0000 0.0000 8.0578 12.3805 -27.9608 -1.5422 -7.8391 22.2265 -1.0901 -1.8109 -20.4548 -0.5389 4.7034 -13.0644 1.9912 -2.8419 32.5321 1.7207 -2.7050 4.9688 1.8058 -1.2906 -11.2460 -5.1632 -1.9088 -5.3591 4.7258 -2.2842 -1.3808 2.3347 -1.0851 0.6097 -0.0000 -0.0000 0.0000 -83.5770 -22.9866 66.9604 155.3121 -35.8833 -111.8937 -0.0000 -0.0000 7.8242 30.0847 -49.1868 -23.6754 -7.1250 0.0000 -0.0000 -5.5150 -23.0517 7.2585 -0.0000 -0.0000 0.0000 69.1798 30.0288 38.9733 -161.0964 29.2987 -115.0164 0.0000 0.0000 2.6973 8.4615 -28.5739 -4.0699 7.1250 -0.0000 -0.0000 40.2718 -53.7976 -9.9593
-0.2939 18.5850 4.6597 0.0791 -4.5512 20.0263 0.0000 0.0000 0.0000 -12.5944 -6.2111 -37.2557 3.5020 11.4665 33.8699 0.9976 -0.4112 -18.7501 8.6067 -16.5479 -54.7198 0.0000 0.0000 0.0000 8.0211 12.3926 -27.7394 -1.5076 -7.7547 21.9714 -1.1285 -1.9229 -20.8468 -0.5451 4.7301 -13.1403 2.2553 -2.7809 32.3877 1.5920 -2.5592 4.9460 1.4672 -1.2342 -11.2282 -4.6163 -1.9795 -5.1101 4.4611 -2.4163 -1.4947 2.1455 -1.1584 0.5237 0.0000 -0.0000 0.0000 -83.5624 -22.8499 67.6506 155.1090 -36.0924 -111.7744 -0.0000 -0.0000 8.6272 31.3131 -48.8680 -24.6166 -7.1250 0.0000 -0.0000 -4.8779 -23.1361 6.4191 0.0000 -0.0000 0.0000 70.3963 28.5707 41.5035 -161.4968 28.7967 -115.2108 0.0000 0.0000 5.2187 5.3233 -28.7518 -2.5663 7.1250 -0.0000 -0.0000 37.6045 -54.5292 -9.8506
-0.2949 18.5837 4.6640 0.1592 -4.3181 20.0491 0.0000 0.0000 0.0000 -12.6071 -6.4079 -37.2903 3.5094 11.4773 33.9070 0.9858 -0.4360 -18.6290 8.6041 -16.5461 -54.7106 0.0000 0.0000 0.0000 7.9756 12.3917 -27.5370 -1.4780 -7.6817 21.7513 -1.1699 -2.0186 -21.2520 -0.5632 4.8065 -13.3575 2.4645 -2.7668 32.1392 1.5241 -2.4906 5.0415 1.2452 -1.2111 -11.0293 -4.2896 -1.9884 -5.2339 4.2111 -2.4395 -1.5504 2.0031 -1.1723 0.5184 -0.0000 0.0000 0.0000 -83.5567 -23.0402 67.9225 155.0714 -36.1309 -111.7522 -0.0000 -0.0000 8.8031 31.5774 -48.1660 -24.6064 -7.1250 0.0000 -0.0000 -4.5241 -22.5562 5.9270 -0.0000 0.0000 0.0000 69.9947 29.2521 41.2267 -161.2735 29.0774 -115.1028 0.0000 0.0000 4.1254 1.9386 -29.6858 -0.9603 7.1250 -0.0000 -0.0000 35.2601 -55.9488 -10.3873
-0.2976 18.5847 4.6647 0.2651 -4.0959 20.0863 0.0000 0.0000 0.0000 -12.6335 -6.6159 -37.3678 3.5219 11.4955 33.9698 0.9614 -0.4207 -18.3994 8.6209 -16.5575 -54.7696 0.0000 0.0000 0.0000 7.9061 12.3412 -27.4239 -1.4547 -7.6236 21.5766 -1.1953 -2.1593 -21.5348 -0.5895 4.9158 -13.6685 2.6097 -2.7360 31.8980 1.4535 -2.4232 5.1264 1.0561 -1.1856 -10.8430 -3.9353 -2.0054 -5.3594 3.9795 -2.4763 -1.5850 1.8623 -1.1932 0.5204 -0.0000 0.0000 0.0000 -83.4742 -23.2749 68.0994 155.0469 -36.1560 -111.7378 -0.0000 -0.0000 8.9889 32.0545 -47.5164 -24.7874 -7.1250 0.0000 -0.0000 -4.0956 -22.0928 5.3454 -0.0000 0.0000 0.0000 70.2084 29.3403 41.5121 -161.2650 29.0881 -115.0987 0.0000 0.0000 3.7584 0.7210 -30.9768 -0.3711 7.1250 -0.0000 -0.0000 35.2291 -57.2574 -11.5383
-0.3034 18.5873 4.6611 0.3790 -3.8708 20.1121 0.0000 0.0000 0.0000 -12.6312 -6.8422 -37.4552 3.5402 11.5221 34.0615 0.9300 -0.4539 -18.0833 8.6083 -16.5489 -54.7254 0.0000 0.0000 0.0000 7.8551 12.2249 -27.3678 -1.4357 -7.5756 21.4324 -1.1987 -2.3466 -21.6490 -0.6102 4.9999 -13.9082 2.6509 -2.7046 31.8595 1.4215 -2.3733 5.0913 0.9809 -1.1639 -10.8688 -3.7278 -2.0010 -5.4646 3.8576 -2.4799 -1.5145 1.7848 -1.1958 0.5548 -0.0000 -0.0000 0.0000 -83.4518 -23.3429 67.9392 154.9732 -36.2314 -111.6942 -0.0000 -0.0000 8.3636 33.3075 -48.2362 -26.1096 -7.1250 0.0000 -0.0000 -3.7951 -23.1921 4.9910 -0.0000 -0.0000 0.0000 70.8427 28.6165 42.7377 -161.5261 28.7598 -115.2249 0.0000 0.0000 4.0398 0.6104 -32.0323 -0.3238 7.1250 -0.0000 -0.0000 36.0903 -58.1405 -12.6675
-0.3093 18.5920 4.6578 0.4669 -3.7197 20.1322 0.0000 0.0000 0.0000 -12.5969 -7.0370 -37.5426 3.5636 11.5559 34.1784 0.8981 -0.4710 -17.7608 8.6095 -16.5498 -54.7296 0.0000 0.0000 0.0000 7.8339 12.0999 -27.3337 -1.4183 -7.5315 21.3000 -1.1870 -2.5145 -21.6274 -0.6349 5.0983 -14.1891 2.5830 -2.6551 31.8718 1.4325 -2.3285 5.0040 1.0148 -1.1408 -10.9692 -3.8200 -1.9988 -5.6057 4.0475 -2.4686 -1.4870 1.8622 -1.1865 0.5923 0.0000 0.0000 0.0000 -83.4603 -23.2383 67.9608 155.1556 -36.0445 -111.8018 -0.0000 -0.0000 7.7506 33.0407 -46.6578 -25.3155 -7.1250 0.0000 -0.0000 -3.3688 -21.5983 4.3780 0.0000 0.0000 0.0000 70.6736 28.9487 42.2640 -161.3931 28.9273 -115.1608 0.0000 0.0000 2.6886 1.5727 -32.8805 -0.8539 7.1250 -0.0000 -0.0000 37.8226 -58.6079 -13.8325
-0.3154 18.5993 4.6562 0.4996 -3.5860 20.1966 0.0000 0.0000 0.0000 -12.4895 -7.2292 -37.6833 3.5910 11.5953 34.3149 0.8676 -0.4562 -17.4578 8.6505 -16.5775 -54.8734 0.0000 0.0000 0.0000 7.8580 12.0237 -27.3219 -1.3992 -7.4828 21.1539 -1.1746 -2.6962 -21.6068 -0.6656 5.2176 -14.5301 2.3943 -2.6684 31.7056 1.6569 -2.3857 5.0197 1.3700 -1.1593 -10.8698 -4.6855 -1.9240 -5.8753 4.5323 -2.3013 -1.7989 2.1802 -1.0920 0.5558 -0.0000 -0.0000 0.0000 -83.8007 -23.1757 67.5603 155.1281 -36.0728 -111.7856 -0.0000 -0.0000 7.5827 31.9377 -45.8586 -24.1007 -7.1250 0.0000 -0.0000 -3.6043 -20.4634 4.6440 -0.0000 -0.0000 0.0000 70.5539 29.1271 42.7286 -161.5098 28.7803 -115.2171 0.0000 0.0000 2.1116 3.1441 -33.1782 -1.7218 7.1250 -0.0000 -0.0000 39.6007 -58.4911 -14.5050
